<svg id="Capa_1" enable-background="new 0 0 512 512" height="512" viewBox="0 0 512 512" width="512" xmlns="http://www.w3.org/2000/svg" xmlns:xlink="http://www.w3.org/1999/xlink"><linearGradient id="SVGID_1_" gradientUnits="userSpaceOnUse" x1="278.5" x2="278.5" y1="481" y2="31"><stop offset="0" stop-color="#a93aff"/><stop offset="1" stop-color="#ff81ff"/></linearGradient><linearGradient id="SVGID_2_" gradientUnits="userSpaceOnUse" x1="225.5" x2="225.5" y1="481" y2="31"><stop offset="0" stop-color="#ffbef9"/><stop offset="1" stop-color="#fff1ff"/></linearGradient><g><g id="Compact_Disc_2_"><path d="m512 46v420c0 8.399-6.599 15-15 15h-422l-30-225 30-225h422c8.401 0 15 6.599 15 15z" fill="url(#SVGID_1_)"/></g><g><g><path d="m286 91c-90.901 0-165 74.099-165 165 0 90.899 74.099 165 165 165s165-74.101 165-165c0-90.901-74.099-165-165-165zm0 210c-24.901 0-45-20.102-45-45 0-24.9 20.099-45 45-45s45 20.1 45 45c0 24.898-20.099 45-45 45zm-286-255v420c0 8.399 6.599 15 15 15h60v-450h-60c-8.401 0-15 6.599-15 15z" fill="url(#SVGID_2_)"/></g></g></g></svg>