<svg id="Capa_1" enable-background="new 0 0 512 512" height="512" viewBox="0 0 512 512" width="512" xmlns="http://www.w3.org/2000/svg" xmlns:xlink="http://www.w3.org/1999/xlink"><linearGradient id="SVGID_1_" gradientUnits="userSpaceOnUse" x1="256" x2="256" y1="421" y2="97"><stop offset="0" stop-color="#fd5900"/><stop offset="1" stop-color="#ffde00"/></linearGradient><linearGradient id="SVGID_2_" gradientUnits="userSpaceOnUse" x1="256" x2="256" y1="286" y2="91"><stop offset="0" stop-color="#ffe59a"/><stop offset="1" stop-color="#ffffd5"/></linearGradient><g><g><g><path d="m509.001 97-253.001 129-253.001-129c-1.8 2.399-2.999 5.7-2.999 9v300c0 8.399 6.599 15 15 15h482c8.401 0 15-6.601 15-15v-300c0-3.3-1.199-6.601-2.999-9z" fill="url(#SVGID_1_)"/></g></g><g><g><path d="m497 91h-482c-5.099 0-9.3 2.398-12.001 6l253.001 189 253.001-189c-2.701-3.602-6.902-6-12.001-6z" fill="url(#SVGID_2_)"/></g></g></g></svg>