<svg id="Layer_1" enable-background="new 0 0 511.998 511.998" height="512" viewBox="0 0 511.998 511.998" width="512" xmlns="http://www.w3.org/2000/svg"><g><path d="m95.985 404.354c-20.477-14.663-22.795-44.259-5.006-62.048l-59 34c-17.789 17.789-15.47 47.384 5.006 62.048 101.41 72.62 239.284 71.505 339.419-3.358-90.916 38.759-197.778 28.537-280.419-30.642z" fill="#cee1f2"/><path d="m204.562 511.997c-64.148 0-127.014-19.997-179.222-57.383-14.509-10.39-23.67-26.567-25.135-44.383-1.468-17.875 4.958-35.395 17.631-48.067l344.328-344.328h.001c12.672-12.672 30.185-19.098 48.066-17.63 17.815 1.464 33.993 10.625 44.384 25.134 41.982 58.627 62.037 130.694 56.471 202.926-5.63 73.049-37.286 141.834-89.136 193.684-51.851 51.85-120.635 83.506-193.684 89.136-7.909.609-15.816.911-23.704.911zm185.887-465.877-344.328 344.329c-4.349 4.349-6.554 10.365-6.049 16.507.507 6.173 3.546 11.549 8.557 15.137 106.905 76.554 252.014 64.599 345.036-28.427 93.025-93.025 104.981-238.134 28.429-345.037-3.588-5.01-8.965-8.049-15.138-8.556-6.145-.508-12.159 1.7-16.507 6.047zm-139.041 338.108c33.073-6.11 63.163-21.948 87.018-45.803 23.854-23.854 39.692-53.944 45.803-87.017 5.961-32.268 2.346-65.243-10.457-95.36-4.321-10.165-16.064-14.902-26.23-10.582-10.165 4.321-14.903 16.065-10.582 26.23 20.228 47.583 9.7 101.925-26.818 138.444-36.518 36.518-90.86 47.044-138.443 26.818-10.16-4.318-21.907.416-26.23 10.582-4.321 10.166.417 21.909 10.582 26.23 20.686 8.793 42.714 13.251 64.939 13.251 10.133.002 20.314-.926 30.418-2.793z" fill="#0023c4"/><path d="m245.001 270.001c0 13.807 11.193 25 25 25s25-11.193 25-25-11.193-25-25-25-25 11.193-25 25zm28-66c0 13.807 11.193 25 25 25s25-11.193 25-25-11.193-25-25-25-25 11.193-25 25zm-94 94c0 13.807 11.193 25 25 25s25-11.193 25-25-11.193-25-25-25-25 11.193-25 25z" fill="#ff5cf4"/></g></svg>