<svg id="Capa_1" enable-background="new 0 0 512 512" height="512" viewBox="0 0 512 512" width="512" xmlns="http://www.w3.org/2000/svg" xmlns:xlink="http://www.w3.org/1999/xlink"><linearGradient id="SVGID_1_" gradientUnits="userSpaceOnUse" x1="256" x2="256" y1="512" y2="0"><stop offset="0" stop-color="#fd5900"/><stop offset="1" stop-color="#ffde00"/></linearGradient><g><g><path d="m450.941 495.755-30-360c-.644-7.778-7.133-13.755-14.941-13.755h-75v-47c0-41.353-33.647-75-75-75s-75 33.647-75 75v47h-75c-7.808 0-14.297 5.977-14.941 13.755l-30 360c-.352 4.175 1.069 8.32 3.896 11.396 2.842 3.091 6.856 4.849 11.045 4.849h360c4.189 0 8.203-1.758 11.045-4.849 2.827-3.076 4.248-7.221 3.896-11.396zm-239.941-420.755c0-24.814 20.186-45 45-45s45 20.186 45 45v47h-90zm-118.696 407 27.495-330h61.201v45c0 8.291 6.709 15 15 15s15-6.709 15-15v-45h90v45c0 8.291 6.709 15 15 15s15-6.709 15-15v-45h61.201l27.495 330z" fill="url(#SVGID_1_)"/></g></g></svg>